<svg width="20" height="21" viewBox="0 0 20 21" fill="none" xmlns="http://www.w3.org/2000/svg">
<path d="M7.14571 3.83055C7.14571 2.94724 7.44643 2.1001 7.98172 1.4755C8.517 0.850897 9.243 0.5 10 0.5C10.757 0.5 11.483 0.850897 12.0183 1.4755C12.5536 2.1001 12.8543 2.94724 12.8543 3.83055C12.8543 4.71387 12.5536 5.56101 12.0183 6.18561C11.483 6.81021 10.757 7.16111 10 7.16111C9.243 7.16111 8.517 6.81021 7.98172 6.18561C7.44643 5.56101 7.14571 4.71387 7.14571 3.83055ZM10 2.16694C9.81277 2.16694 9.62738 2.20997 9.4544 2.29358C9.28143 2.37718 9.12426 2.49972 8.99187 2.6542C8.85948 2.80869 8.75446 2.99208 8.68281 3.19392C8.61116 3.39576 8.57429 3.61209 8.57429 3.83055C8.57429 4.04902 8.61116 4.26535 8.68281 4.46719C8.75446 4.66903 8.85948 4.85243 8.99187 5.00691C9.12426 5.16139 9.28143 5.28393 9.4544 5.36753C9.62738 5.45114 9.81277 5.49417 10 5.49417C10.3781 5.49417 10.7408 5.31889 11.0081 5.00691C11.2755 4.69492 11.4257 4.27177 11.4257 3.83055C11.4257 3.38934 11.2755 2.96619 11.0081 2.6542C10.7408 2.34222 10.3781 2.16694 10 2.16694ZM14.2857 4.66403C14.2857 4.33567 14.3411 4.01052 14.4488 3.70716C14.5565 3.40379 14.7144 3.12815 14.9133 2.89597C15.1123 2.66378 15.3486 2.4796 15.6085 2.35394C15.8685 2.22829 16.1472 2.16361 16.4286 2.16361C16.71 2.16361 16.9886 2.22829 17.2486 2.35394C17.5086 2.4796 17.7448 2.66378 17.9438 2.89597C18.1428 3.12815 18.3006 3.40379 18.4083 3.70716C18.516 4.01052 18.5714 4.33567 18.5714 4.66403C18.5714 5.32718 18.3457 5.96317 17.9438 6.43209C17.5419 6.90101 16.9969 7.16444 16.4286 7.16444C15.8603 7.16444 15.3152 6.90101 14.9133 6.43209C14.5115 5.96317 14.2857 5.32718 14.2857 4.66403ZM16.4286 3.83055C16.2391 3.83055 16.0574 3.91837 15.9235 4.07467C15.7895 4.23098 15.7143 4.44298 15.7143 4.66403C15.7143 4.88508 15.7895 5.09707 15.9235 5.25338C16.0574 5.40969 16.2391 5.4975 16.4286 5.4975C16.618 5.4975 16.7997 5.40969 16.9336 5.25338C17.0676 5.09707 17.1429 4.88508 17.1429 4.66403C17.1429 4.44298 17.0676 4.23098 16.9336 4.07467C16.7997 3.91837 16.618 3.83055 16.4286 3.83055ZM3.57143 2.16361C3.00311 2.16361 2.45806 2.42705 2.0562 2.89597C1.65434 3.36488 1.42857 4.00088 1.42857 4.66403C1.42857 5.32718 1.65434 5.96317 2.0562 6.43209C2.45806 6.90101 3.00311 7.16444 3.57143 7.16444C4.13975 7.16444 4.68479 6.90101 5.08666 6.43209C5.48852 5.96317 5.71429 5.32718 5.71429 4.66403C5.71429 4.00088 5.48852 3.36488 5.08666 2.89597C4.68479 2.42705 4.13975 2.16361 3.57143 2.16361ZM2.85714 4.66403C2.85714 4.44298 2.9324 4.23098 3.06635 4.07467C3.20031 3.91837 3.38199 3.83055 3.57143 3.83055C3.76087 3.83055 3.94255 3.91837 4.07651 4.07467C4.21046 4.23098 4.28571 4.44298 4.28571 4.66403C4.28571 4.88508 4.21046 5.09707 4.07651 5.25338C3.94255 5.40969 3.76087 5.4975 3.57143 5.4975C3.38199 5.4975 3.20031 5.40969 3.06635 5.25338C2.9324 5.09707 2.85714 4.88508 2.85714 4.66403ZM4.66857 8.83139C4.41715 9.33789 4.28506 9.913 4.28571 10.4983H1.42857V14.6657C1.42846 15.0803 1.51671 15.4885 1.68538 15.8534C1.85406 16.2184 2.09786 16.5286 2.39484 16.7563C2.69182 16.984 3.03266 17.1219 3.38668 17.1576C3.74069 17.1934 4.09677 17.1258 4.42286 16.9611C4.52857 17.5128 4.69429 18.0396 4.90857 18.5313C4.36638 18.7868 3.77873 18.883 3.19722 18.8115C2.61572 18.74 2.05815 18.503 1.57349 18.1213C1.08882 17.7396 0.691885 17.2249 0.417533 16.6224C0.14318 16.0199 -0.000194354 15.348 1.97733e-07 14.6657V10.4983C1.97733e-07 10.0562 0.15051 9.63224 0.418419 9.31963C0.686328 9.00701 1.04969 8.83139 1.42857 8.83139H4.66857ZM15.0914 18.5313C15.6336 18.7868 16.2213 18.883 16.8028 18.8115C17.3843 18.74 17.9418 18.503 18.4265 18.1213C18.9112 17.7396 19.3081 17.2249 19.5825 16.6224C19.8568 16.0199 20.0002 15.348 20 14.6657V10.4983C20 10.0562 19.8495 9.63224 19.5816 9.31963C19.3137 9.00701 18.9503 8.83139 18.5714 8.83139H15.3314C15.5743 9.32147 15.7143 9.8899 15.7143 10.4983H18.5714V14.6657C18.5715 15.0803 18.4833 15.4885 18.3146 15.8534C18.1459 16.2184 17.9021 16.5286 17.6052 16.7563C17.3082 16.984 16.9673 17.1219 16.6133 17.1576C16.2593 17.1934 15.9032 17.1258 15.5771 16.9611C15.47 17.5128 15.3057 18.0396 15.0914 18.5313ZM7.14286 8.82972C6.76398 8.82972 6.40061 9.00535 6.13271 9.31796C5.8648 9.63057 5.71429 10.0546 5.71429 10.4967V15.4992C5.71429 16.8255 6.16582 18.0975 6.96954 19.0353C7.77327 19.9731 8.86336 20.5 10 20.5C11.1366 20.5 12.2267 19.9731 13.0305 19.0353C13.8342 18.0975 14.2857 16.8255 14.2857 15.4992V10.4983C14.2857 10.0562 14.1352 9.63224 13.8673 9.31963C13.5994 9.00701 13.236 8.83139 12.8571 8.83139H7.14286V8.82972ZM7.14286 10.4967H12.8571V15.4992C12.8571 16.3834 12.5561 17.2314 12.0203 17.8566C11.4845 18.4818 10.7578 18.8331 10 18.8331C9.24224 18.8331 8.51551 18.4818 7.97969 17.8566C7.44388 17.2314 7.14286 16.3834 7.14286 15.4992V10.4983V10.4967Z" fill="#132039"/>
</svg>
