<svg width="23" height="25" viewBox="0 0 23 25" fill="none" xmlns="http://www.w3.org/2000/svg">
<path d="M11.375 24.4995C12.2085 24.4995 13.0079 24.1835 13.5973 23.6209C14.1867 23.0583 14.5179 22.2953 14.5179 21.4997H8.23214C8.23214 22.2953 8.56326 23.0583 9.15266 23.6209C9.74206 24.1835 10.5415 24.4995 11.375 24.4995ZM11.375 3.37767L10.1226 3.61915C8.70194 3.89544 7.42495 4.63175 6.50774 5.70347C5.59053 6.77519 5.08944 8.11649 5.08929 9.50033C5.08929 10.4423 4.87871 12.7957 4.368 15.113C4.11657 16.2635 3.77714 17.4619 3.32614 18.4998H19.4239C18.9729 17.4619 18.635 16.265 18.382 15.113C17.8713 12.7957 17.6607 10.4423 17.6607 9.50033C17.6602 8.11674 17.1589 6.7758 16.2418 5.70439C15.3246 4.63298 14.0478 3.89689 12.6274 3.62065L11.375 3.37617V3.37767ZM21.1493 18.4998C21.4997 19.1703 21.9051 19.7013 22.375 19.9998H0.375C0.844857 19.7013 1.25029 19.1703 1.60071 18.4998C3.015 15.8 3.51786 10.8203 3.51786 9.50033C3.51786 5.87053 6.22071 2.8407 9.81143 2.14923C9.7895 1.94068 9.8136 1.73005 9.8822 1.53093C9.95079 1.33181 10.0623 1.14862 10.2097 0.993184C10.357 0.837745 10.5368 0.713504 10.7375 0.628474C10.9382 0.543444 11.1554 0.499512 11.375 0.499512C11.5946 0.499512 11.8118 0.543444 12.0125 0.628474C12.2132 0.713504 12.393 0.837745 12.5403 0.993184C12.6877 1.14862 12.7992 1.33181 12.8678 1.53093C12.9364 1.73005 12.9605 1.94068 12.9386 2.14923C14.7147 2.49407 16.3115 3.41421 17.4584 4.75384C18.6053 6.09348 19.2319 7.77029 19.2321 9.50033C19.2321 10.8203 19.735 15.8 21.1493 18.4998Z" fill="#6689CC"/>
</svg>
