<svg width="31" height="24" viewBox="0 0 31 24" fill="none" xmlns="http://www.w3.org/2000/svg">
<path d="M20.1875 12.9375C20.1875 14.1807 19.6936 15.373 18.8146 16.2521C17.9355 17.1311 16.7432 17.625 15.5 17.625C14.2568 17.625 13.0645 17.1311 12.1854 16.2521C11.3064 15.373 10.8125 14.1807 10.8125 12.9375C10.8125 11.6943 11.3064 10.502 12.1854 9.62294C13.0645 8.74386 14.2568 8.25 15.5 8.25C16.7432 8.25 17.9355 8.74386 18.8146 9.62294C19.6936 10.502 20.1875 11.6943 20.1875 12.9375Z" fill="#6689CC"/>
<path d="M4.25 4.5C3.25544 4.5 2.30161 4.89509 1.59835 5.59835C0.895088 6.30161 0.5 7.25544 0.5 8.25V19.5C0.5 20.4946 0.895088 21.4484 1.59835 22.1516C2.30161 22.8549 3.25544 23.25 4.25 23.25H26.75C27.7446 23.25 28.6984 22.8549 29.4016 22.1516C30.1049 21.4484 30.5 20.4946 30.5 19.5V8.25C30.5 7.25544 30.1049 6.30161 29.4016 5.59835C28.6984 4.89509 27.7446 4.5 26.75 4.5H24.5525C23.558 4.49979 22.6043 4.10456 21.9012 3.40125L20.3488 1.84875C19.6457 1.14544 18.692 0.750212 17.6975 0.75H13.3025C12.308 0.750212 11.3543 1.14544 10.6512 1.84875L9.09875 3.40125C8.39565 4.10456 7.44198 4.49979 6.4475 4.5H4.25ZM5.1875 8.25C4.93886 8.25 4.7004 8.15123 4.52459 7.97541C4.34877 7.7996 4.25 7.56114 4.25 7.3125C4.25 7.06386 4.34877 6.8254 4.52459 6.64959C4.7004 6.47377 4.93886 6.375 5.1875 6.375C5.43614 6.375 5.6746 6.47377 5.85041 6.64959C6.02623 6.8254 6.125 7.06386 6.125 7.3125C6.125 7.56114 6.02623 7.7996 5.85041 7.97541C5.6746 8.15123 5.43614 8.25 5.1875 8.25ZM22.0625 12.9375C22.0625 14.678 21.3711 16.3472 20.1404 17.5779C18.9097 18.8086 17.2405 19.5 15.5 19.5C13.7595 19.5 12.0903 18.8086 10.8596 17.5779C9.6289 16.3472 8.9375 14.678 8.9375 12.9375C8.9375 11.197 9.6289 9.52782 10.8596 8.29711C12.0903 7.0664 13.7595 6.375 15.5 6.375C17.2405 6.375 18.9097 7.0664 20.1404 8.29711C21.3711 9.52782 22.0625 11.197 22.0625 12.9375Z" fill="#6689CC"/>
</svg>
