<svg width="8" height="16" viewBox="0 0 8 16" fill="none" xmlns="http://www.w3.org/2000/svg">
<path fill-rule="evenodd" clip-rule="evenodd" d="M0.167835 15.8192C0.114634 15.7621 0.0724241 15.6942 0.0436241 15.6194C0.0148241 15.5447 -2.34065e-08 15.4645 -2.69442e-08 15.3836C-3.0482e-08 15.3027 0.014824 15.2225 0.0436241 15.1478C0.0724241 15.073 0.114634 15.0051 0.167835 14.9479L6.6199 7.99984L0.167835 1.05173C0.114719 0.994521 0.0725856 0.926604 0.0438397 0.851856C0.0150938 0.777109 0.000298436 0.696995 0.000298432 0.616089C0.000298429 0.535183 0.0150938 0.455069 0.0438397 0.380322C0.0725856 0.305573 0.114719 0.237657 0.167835 0.180448C0.22095 0.123239 0.284007 0.077857 0.353406 0.046896C0.422805 0.0159349 0.497186 -2.17327e-08 0.572303 -2.50162e-08C0.64742 -2.82996e-08 0.721801 0.0159349 0.7912 0.0468959C0.860599 0.077857 0.923656 0.123239 0.976771 0.180448L7.83216 7.5642C7.88537 7.62135 7.92758 7.68926 7.95638 7.76401C7.98518 7.83876 8 7.9189 8 7.99984C8 8.08077 7.98518 8.16091 7.95638 8.23567C7.92758 8.31042 7.88537 8.37832 7.83216 8.43548L0.976772 15.8192C0.923705 15.8765 0.860663 15.922 0.791258 15.953C0.721852 15.984 0.647447 16 0.572304 16C0.49716 16 0.422755 15.984 0.35335 15.953C0.283944 15.922 0.220903 15.8765 0.167835 15.8192Z" fill="#132039"/>
</svg>
