<svg width="30" height="22" viewBox="0 0 30 22" fill="none" xmlns="http://www.w3.org/2000/svg">
<path d="M11.0089 11C11.0089 12.0023 11.4149 12.9635 12.1376 13.6723C12.8602 14.381 13.8404 14.7791 14.8624 14.7791C15.8844 14.7791 16.8645 14.381 17.5872 13.6723C18.3098 12.9635 18.7158 12.0023 18.7158 11C18.7158 9.99771 18.3098 9.03647 17.5872 8.32774C16.8645 7.61902 15.8844 7.22086 14.8624 7.22086C13.8404 7.22086 12.8602 7.61902 12.1376 8.32774C11.4149 9.03647 11.0089 9.99771 11.0089 11V11ZM29.8013 10.1294C26.5397 3.3911 21.6093 0 15 0C8.38722 0 3.46033 3.3911 0.198676 10.1328C0.0678502 10.4045 0 10.7012 0 11.0017C0 11.3021 0.0678502 11.5989 0.198676 11.8706C3.46033 18.6089 8.39066 22 15 22C21.6128 22 26.5397 18.6089 29.8013 11.8672C30.0662 11.3206 30.0662 10.6862 29.8013 10.1294V10.1294ZM14.8624 16.9387C11.5181 16.9387 8.80697 14.2798 8.80697 11C8.80697 7.72025 11.5181 5.06135 14.8624 5.06135C18.2066 5.06135 20.9178 7.72025 20.9178 11C20.9178 14.2798 18.2066 16.9387 14.8624 16.9387Z" fill="#264073"/>
</svg>
