<svg width="30" height="22" viewBox="0 0 30 22" fill="none" xmlns="http://www.w3.org/2000/svg">
<path d="M14.8624 14.3696C15.8844 14.3696 16.8645 14.0328 17.5871 13.4333C18.3098 12.8339 18.7158 12.0208 18.7158 11.173C18.7158 11.0793 18.7106 10.9866 18.701 10.895L14.5272 14.3574C14.6377 14.3654 14.7492 14.3696 14.8624 14.3696ZM27.6172 1.28498L26.1474 0.0668242C26.0958 0.0240358 26.0258 0 25.9528 0C25.8799 0 25.8099 0.0240358 25.7583 0.0668242L21.9971 3.18786C19.9222 2.3082 17.5898 1.86838 15 1.86838C8.38722 1.86838 3.45345 4.7254 0.198676 10.4394C0.0678502 10.6693 0 10.9202 0 11.1744C0 11.4285 0.0678502 11.6795 0.198676 11.9093C1.49921 14.1818 3.06524 16.0033 4.89677 17.3736L1.25699 20.3919C1.20541 20.4347 1.17644 20.4928 1.17644 20.5533C1.17644 20.6139 1.20541 20.6719 1.25699 20.7147L2.72577 21.9332C2.77738 21.976 2.84737 22 2.92033 22C2.9933 22 3.06328 21.976 3.1149 21.9332L27.6172 1.60808C27.6428 1.58687 27.6631 1.56169 27.677 1.53397C27.6908 1.50625 27.6979 1.47654 27.6979 1.44653C27.6979 1.41652 27.6908 1.38681 27.677 1.35909C27.6631 1.33137 27.6428 1.30619 27.6172 1.28498ZM8.80697 11.173C8.80687 10.3053 9.07768 9.45243 9.59302 8.69741C10.1084 7.9424 10.8507 7.31098 11.7476 6.86468C12.6445 6.41838 13.6655 6.17241 14.7111 6.15074C15.7567 6.12906 16.7912 6.33243 17.7139 6.74101L16.0411 8.12871C15.3665 7.94951 14.6454 7.92793 13.9569 8.06633C13.2685 8.20473 12.6393 8.49777 12.1384 8.91329C11.6375 9.32881 11.2843 9.85076 11.1175 10.4219C10.9506 10.993 10.9766 11.5912 11.1927 12.1508L9.51985 13.5385C9.05042 12.8109 8.8055 11.9982 8.80697 11.173Z" fill="#264073"/>
<path d="M29.8013 10.4366C28.5902 8.3207 27.1487 6.59535 25.4768 5.26055L20.5176 9.37484C20.9357 10.2814 21.0283 11.2689 20.7844 12.2182C20.5405 13.1674 19.9704 14.0378 19.1431 14.7241C18.3158 15.4104 17.2666 15.8833 16.1223 16.0857C14.978 16.288 13.7876 16.2111 12.6948 15.8644L8.48837 19.3539C10.4399 20.103 12.6104 20.4776 15 20.4776C21.6127 20.4776 26.5465 17.6205 29.8013 11.9065C29.9321 11.6767 30 11.4257 30 11.1715C30 10.9174 29.9321 10.6664 29.8013 10.4366Z" fill="#264073"/>
</svg>
