<svg width="30" height="30" viewBox="0 0 30 30" fill="none" xmlns="http://www.w3.org/2000/svg">
<path d="M15.0013 30C6.7206 29.991 0.0090008 23.2803 0 15.0007V14.7007C0.165015 6.45853 6.95312 -0.106682 15.1964 0.00131346C23.4426 0.112309 30.0537 6.85451 29.9997 15.0982C29.9457 23.3433 23.2476 30 15.0013 30ZM14.9773 27.0001H15.0013C18.1832 26.997 21.2335 25.7305 23.4817 23.4792C25.7299 21.2279 26.992 18.1761 26.9904 14.9947C26.9888 11.8132 25.7237 8.76267 23.4733 6.51363C21.2228 4.26459 18.1712 3.00119 14.9893 3.00119C11.8075 3.00119 8.75588 4.26459 6.50542 6.51363C4.25496 8.76267 2.98986 11.8132 2.98827 14.9947C2.98668 18.1761 4.24872 21.2279 6.49694 23.4792C8.74515 25.7305 11.7955 26.997 14.9773 27.0001ZM16.5015 24.0003H13.5012V21.0004H16.5015V24.0003ZM16.5015 19.5005H13.5012C13.4779 18.5413 13.7119 17.5933 14.1788 16.7551C14.6457 15.9169 15.3286 15.2189 16.1564 14.7337C17.1465 13.9747 18.0016 13.3207 18.0016 12.0008C18.0016 11.2052 17.6855 10.4421 17.1228 9.87956C16.5602 9.31698 15.7971 9.00092 15.0013 9.00092C14.2056 9.00092 13.4425 9.31698 12.8798 9.87956C12.3172 10.4421 12.0011 11.2052 12.0011 12.0008H9.0008V11.8658C9.01871 10.2746 9.66807 8.75562 10.8061 7.64311C11.944 6.5306 13.4774 5.91565 15.0688 5.93355C16.6603 5.95146 18.1794 6.60074 19.2921 7.73856C20.4047 8.87639 21.0198 10.4096 21.0019 12.0008C20.9489 12.7989 20.7096 13.5735 20.3032 14.2625C19.8968 14.9514 19.3346 15.5356 18.6617 15.9681C18.0532 16.35 17.5414 16.8677 17.1667 17.4806C16.7919 18.0935 16.5642 18.7848 16.5015 19.5005Z" fill="#264073"/>
</svg>
