<svg width="16" height="17" viewBox="0 0 16 17" fill="none" xmlns="http://www.w3.org/2000/svg">
<path fill-rule="evenodd" clip-rule="evenodd" d="M8 0.5C3.58 0.5 0 4.17055 0 8.70235C0 12.3319 2.29 15.3975 5.47 16.4843C5.87 16.5561 6.02 16.31 6.02 16.0947C6.02 15.8999 6.01 15.254 6.01 14.567C4 14.9464 3.48 14.0646 3.32 13.6033C3.23 13.3674 2.84 12.6395 2.5 12.4447C2.22 12.2909 1.82 11.9115 2.49 11.9013C3.12 11.891 3.57 12.4959 3.72 12.742C4.44 13.9826 5.59 13.634 6.05 13.4187C6.12 12.8855 6.33 12.5267 6.56 12.3216C4.78 12.1166 2.92 11.4091 2.92 8.27173C2.92 7.37972 3.23 6.64151 3.74 6.06735C3.66 5.86229 3.38 5.02155 3.82 3.89372C3.82 3.89372 4.49 3.67841 6.02 4.73446C6.66 4.54991 7.34 4.45763 8.02 4.45763C8.7 4.45763 9.38 4.54991 10.02 4.73446C11.55 3.66816 12.22 3.89372 12.22 3.89372C12.66 5.02155 12.38 5.86229 12.3 6.06735C12.81 6.64151 13.12 7.36947 13.12 8.27173C13.12 11.4194 11.25 12.1166 9.47 12.3216C9.76 12.578 10.01 13.0701 10.01 13.8391C10.01 14.9361 10 15.8179 10 16.0947C10 16.31 10.15 16.5664 10.55 16.4843C12.1381 15.9346 13.5181 14.8881 14.4958 13.4921C15.4734 12.0961 15.9995 10.4209 16 8.70235C16 4.17055 12.42 0.5 8 0.5Z" fill="#ECF0F9"/>
</svg>
