<svg width="20" height="21" viewBox="0 0 20 21" fill="none" xmlns="http://www.w3.org/2000/svg">
<path d="M10.7127 0.795713C10.6197 0.702011 10.5092 0.627639 10.3874 0.576885C10.2655 0.526131 10.1349 0.5 10.0029 0.5C9.87092 0.5 9.74025 0.526131 9.61842 0.576885C9.4966 0.627639 9.38603 0.702011 9.2931 0.795713L0.295712 9.7931C0.202011 9.88604 0.127638 9.99661 0.0768846 10.1184C0.0261306 10.2403 0 10.3709 0 10.5029C0 10.6349 0.0261306 10.7655 0.0768846 10.8874C0.127638 11.0092 0.202011 11.1198 0.295712 11.2127C0.389125 11.3053 0.499909 11.3787 0.621711 11.4284C0.743513 11.4782 0.873938 11.5034 1.00551 11.5026H2.00522V18.5006C2.00522 19.0309 2.21587 19.5394 2.59083 19.9144C2.9658 20.2893 3.47435 20.5 4.00463 20.5H16.0011C16.5314 20.5 17.04 20.2893 17.4149 19.9144C17.7899 19.5394 18.0006 19.0309 18.0006 18.5006V11.5026H19.0003C19.2654 11.5026 19.5197 11.3973 19.7072 11.2098C19.8947 11.0223 20 10.768 20 10.5029C20.0007 10.3713 19.9755 10.2409 19.9258 10.1191C19.876 9.9973 19.8027 9.88652 19.7101 9.7931L10.7127 0.795713ZM4.00463 18.5006V8.91336L10.0029 2.9151L16.0011 8.91336V18.5006H4.00463Z" fill="#406BBF"/>
</svg>
