<svg width="30" height="30" viewBox="0 0 30 30" fill="none" xmlns="http://www.w3.org/2000/svg">
<path d="M2.61082 13.5002H28.6958C29.0417 13.5002 29.3734 13.6582 29.618 13.9395C29.8626 14.2207 30 14.6022 30 15C30 15.3978 29.8626 15.7793 29.618 16.0605C29.3734 16.3418 29.0417 16.4998 28.6958 16.4998H2.61082C2.26492 16.4998 1.93318 16.3418 1.68858 16.0605C1.44399 15.7793 1.30658 15.3978 1.30658 15C1.30658 14.6022 1.44399 14.2207 1.68858 13.9395C1.93318 13.6582 2.26492 13.5002 2.61082 13.5002Z" fill="#264073"/>
<path d="M3.15078 15L13.9682 27.4364C14.2131 27.7181 14.3507 28.1 14.3507 28.4983C14.3507 28.8966 14.2131 29.2785 13.9682 29.5602C13.7233 29.8418 13.3911 30 13.0448 30C12.6985 30 12.3663 29.8418 12.1214 29.5602L0.383171 16.0619C0.261711 15.9225 0.165347 15.757 0.0995957 15.5748C0.0338448 15.3926 0 15.1973 0 15C0 14.8027 0.0338448 14.6074 0.0995957 14.4252C0.165347 14.243 0.261711 14.0775 0.383171 13.9381L12.1214 0.439839C12.3663 0.158215 12.6985 0 13.0448 0C13.3911 0 13.7233 0.158215 13.9682 0.439839C14.2131 0.721463 14.3507 1.10343 14.3507 1.50171C14.3507 1.89998 14.2131 2.28195 13.9682 2.56357L3.15078 15Z" fill="#264073"/>
</svg>
