<svg width="11" height="11" viewBox="0 0 11 11" fill="none" xmlns="http://www.w3.org/2000/svg">
<path d="M7.37637 4.13647L7.37636 4.13647L6.83635 3.59509C6.83634 3.59508 6.83634 3.59508 6.83633 3.59507C6.81705 3.57599 6.79103 3.5653 6.76392 3.5653C6.7368 3.5653 6.71078 3.576 6.6915 3.59507L7.37637 4.13647ZM7.37637 4.13647C7.41608 4.17619 7.41608 4.24159 7.37637 4.2813L4.28106 7.37661C4.24134 7.41632 4.17594 7.41632 4.13623 7.37661L3.59485 6.83523C3.57576 6.81595 3.56505 6.78992 3.56505 6.76279C3.56505 6.73567 3.57576 6.70963 3.59485 6.69036L6.69148 3.59509L7.37637 4.13647ZM6.27036 7.57252C6.29749 7.57252 6.32352 7.58323 6.3428 7.60232L6.88418 8.1437C6.92389 8.18341 6.92389 8.24881 6.88418 8.28852L5.29551 9.8772C4.14291 11.0312 2.27556 11.0298 1.12158 9.87719C-0.0323867 8.72459 -0.0323909 6.85724 1.12158 5.70327L2.71023 4.11462C2.72951 4.09554 2.75554 4.08483 2.78267 4.08483C2.80979 4.08483 2.83583 4.09554 2.8551 4.11462L3.39922 4.65874C3.43893 4.69845 3.43893 4.76385 3.39922 4.80357L1.81055 6.39224C1.07251 7.13027 0.994226 8.37465 1.81054 9.19096C2.6255 10.0073 3.87124 9.929 4.60928 9.19097L6.19793 7.60232C6.2172 7.58323 6.24323 7.57252 6.27036 7.57252ZM5.7044 1.12182C6.857 -0.0321426 8.72435 -0.0321467 9.87832 1.12183C11.0309 2.27579 11.0309 4.14315 9.87832 5.29712L8.28965 6.88579C8.24994 6.9255 8.18454 6.9255 8.14482 6.88579L7.60071 6.34168C7.58162 6.3224 7.57091 6.29637 7.57091 6.26924C7.57091 6.24211 7.58162 6.21608 7.60071 6.1968L9.18936 4.60815C9.92739 3.87012 10.0057 2.62574 9.18936 1.80943C8.3744 0.9931 7.12866 1.07139 6.39063 1.80942L4.80195 3.3981C4.76224 3.43781 4.69684 3.43781 4.65713 3.3981L4.11438 2.85535C4.09529 2.83607 4.08458 2.81004 4.08458 2.78291C4.08458 2.75578 4.09529 2.72975 4.11438 2.71047L5.70439 1.12183L5.7044 1.12182Z" fill="#406BBF" stroke="#406BBF" stroke-width="0.0136719"/>
</svg>
