<svg width="30" height="30" viewBox="0 0 30 30" fill="none" xmlns="http://www.w3.org/2000/svg">
<path d="M15 6.42857C13.9405 6.42857 12.9047 6.74276 12.0237 7.33141C11.1428 7.92006 10.4561 8.75673 10.0506 9.73562C9.64518 10.7145 9.53909 11.7917 9.7458 12.8308C9.9525 13.87 10.4627 14.8246 11.2119 15.5738C11.9611 16.323 12.9157 16.8332 13.9549 17.0399C14.9941 17.2466 16.0712 17.1405 17.0501 16.7351C18.029 16.3296 18.8657 15.643 19.4543 14.762C20.043 13.881 20.3571 12.8453 20.3571 11.7857C20.3571 10.3649 19.7927 9.0023 18.7881 7.99764C17.7834 6.99298 16.4208 6.42857 15 6.42857ZM15 15C14.3643 15 13.7428 14.8115 13.2142 14.4583C12.6857 14.1051 12.2737 13.6031 12.0304 13.0158C11.7871 12.4284 11.7235 11.7821 11.8475 11.1586C11.9715 10.5351 12.2776 9.96239 12.7272 9.51287C13.1767 9.06334 13.7494 8.75721 14.3729 8.63319C14.9964 8.50916 15.6427 8.57282 16.2301 8.8161C16.8174 9.05938 17.3194 9.47136 17.6726 9.99995C18.0258 10.5285 18.2143 11.15 18.2143 11.7857C18.2134 12.6379 17.8745 13.455 17.2719 14.0576C16.6693 14.6602 15.8522 14.9991 15 15Z" fill="#264073"/>
<path d="M15 0C12.0333 0 9.13319 0.879735 6.66645 2.52796C4.19971 4.17618 2.27713 6.51886 1.14181 9.25975C0.00649919 12.0006 -0.290551 15.0166 0.288227 17.9263C0.867006 20.8361 2.29562 23.5088 4.3934 25.6066C6.49119 27.7044 9.16393 29.133 12.0736 29.7118C14.9834 30.2905 17.9994 29.9935 20.7403 28.8582C23.4811 27.7229 25.8238 25.8003 27.472 23.3335C29.1203 20.8668 30 17.9667 30 15C29.9955 11.0231 28.4137 7.21047 25.6016 4.39841C22.7895 1.58635 18.9769 0.0045372 15 0ZM8.57143 26.1182V24.6429C8.57228 23.7906 8.9112 22.9736 9.51381 22.3709C10.1164 21.7683 10.9335 21.4294 11.7857 21.4286H18.2143C19.0665 21.4294 19.8836 21.7683 20.4862 22.3709C21.0888 22.9736 21.4277 23.7906 21.4286 24.6429V26.1182C19.4777 27.2574 17.2591 27.8577 15 27.8577C12.7409 27.8577 10.5223 27.2574 8.57143 26.1182ZM23.5629 24.5636C23.5415 23.1582 22.9689 21.8175 21.9685 20.8303C20.968 19.843 19.6198 19.2884 18.2143 19.2857H11.7857C10.3802 19.2884 9.03197 19.843 8.03153 20.8303C7.03108 21.8175 6.4585 23.1582 6.43715 24.5636C4.49418 22.8287 3.124 20.5445 2.50804 18.0136C1.89208 15.4826 2.0594 12.8243 2.98783 10.3906C3.91627 7.95683 5.56203 5.8625 7.70719 4.38489C9.85235 2.90728 12.3957 2.1161 15.0005 2.1161C17.6054 2.1161 20.1487 2.90728 22.2939 4.38489C24.4391 5.8625 26.0848 7.95683 27.0132 10.3906C27.9417 12.8243 28.109 15.4826 27.493 18.0136C26.8771 20.5445 25.5058 22.8287 23.5629 24.5636Z" fill="#264073"/>
</svg>
