<svg width="auto" height="auto" viewBox="0 0 521 163" fill="none" xmlns="http://www.w3.org/2000/svg">
<line y1="1" x2="520" y2="1" stroke="#0D1526" stroke-width="2"/>
<path fill-rule="evenodd" clip-rule="evenodd" d="M122.279 102.264C122.279 112.206 130.337 120.264 140.279 120.264C150.22 120.264 158.279 112.206 158.279 102.264C158.279 92.3234 150.22 84.2645 140.279 84.2645C130.337 84.2645 122.279 92.3234 122.279 102.264ZM140.279 82.2645C151.324 82.2645 160.279 91.2188 160.279 102.264C160.279 113.31 151.324 122.264 140.279 122.264L20.2786 122.264C9.23286 122.264 0.278563 113.31 0.278564 102.264C0.278564 91.2188 9.23286 82.2645 20.2786 82.2645L140.279 82.2645ZM29.0068 84.2645L131.55 84.2645C124.878 87.5059 120.279 94.3481 120.279 102.264C120.279 110.181 124.878 117.023 131.55 120.264L29.0068 120.264C35.6792 117.023 40.2786 110.181 40.2786 102.264C40.2786 94.3481 35.6792 87.5059 29.0068 84.2645ZM2.27856 102.264C2.27856 112.206 10.3374 120.264 20.2786 120.264C30.2197 120.264 38.2786 112.206 38.2786 102.264C38.2786 92.3234 30.2197 84.2645 20.2786 84.2645C10.3374 84.2645 2.27856 92.3234 2.27856 102.264Z" fill="#0D1526"/>
<path fill-rule="evenodd" clip-rule="evenodd" d="M112.996 35.0122C105.967 42.0416 94.5697 42.0416 87.5403 35.0122C80.5108 27.9828 80.5108 16.5858 87.5403 9.55635C90.7993 6.29734 94.9971 4.54929 99.2632 4.31218C100.173 4.26161 101.086 4.27977 101.994 4.36665C106.009 4.75107 109.921 6.48097 112.996 9.55635C120.026 16.5858 120.026 27.9828 112.996 35.0122ZM106.824 41.184C99.8142 43.61 91.7238 42.0241 86.1261 36.4264C80.5283 30.8287 78.9424 22.7383 81.3685 15.7282L7.55633 89.5403C0.526892 96.5697 0.526897 107.967 7.55633 114.996C14.5858 122.026 25.9827 122.026 33.0122 114.996L106.824 41.184ZM114.41 8.14214C122.221 15.9526 122.221 28.6159 114.41 36.4264L34.4264 116.41C26.6159 124.221 13.9526 124.221 6.14212 116.41C-1.66837 108.6 -1.66837 95.9366 6.14212 88.1261L86.1261 8.14214C89.2498 5.01836 93.1499 3.14392 97.2052 2.51884C99.1703 2.21593 101.172 2.20639 103.139 2.49021C103.457 2.53598 103.773 2.58937 104.088 2.65039C107.87 3.38262 111.481 5.2132 114.41 8.14214Z" fill="#0D1526"/>
<path fill-rule="evenodd" clip-rule="evenodd" d="M118.272 142.283C118.272 132.341 110.213 124.283 100.272 124.283C90.331 124.283 82.2721 132.341 82.2721 142.283C82.2721 152.224 90.331 160.283 100.272 160.283C110.213 160.283 118.272 152.224 118.272 142.283ZM118.272 22.2825V133.554C115.031 126.882 108.188 122.283 100.272 122.283C92.3557 122.283 85.5135 126.882 82.2721 133.554V22.2825C82.2721 12.3414 90.331 4.2825 100.272 4.2825C110.213 4.2825 118.272 12.3414 118.272 22.2825ZM120.272 142.283C120.272 153.328 111.318 162.283 100.272 162.283C89.2264 162.283 80.2721 153.328 80.2721 142.283V22.2825C80.2721 11.2368 89.2264 2.2825 100.272 2.2825C111.318 2.2825 120.272 11.2368 120.272 22.2825V142.283Z" fill="#0D1526"/>
<circle cx="260" cy="82" r="79" stroke="#0D1526" stroke-width="2"/>
<circle cx="260" cy="82" r="39" stroke="#0D1526" stroke-width="2"/>
<circle cx="260" cy="22" r="19" stroke="#0D1526" stroke-width="2"/>
<circle cx="260" cy="142" r="19" stroke="#0D1526" stroke-width="2"/>
<circle cx="320" cy="82" r="19" stroke="#0D1526" stroke-width="2"/>
<circle cx="200" cy="82" r="19" stroke="#0D1526" stroke-width="2"/>
<path fill-rule="evenodd" clip-rule="evenodd" d="M482.279 102.264C482.279 112.206 490.337 120.264 500.279 120.264C510.22 120.264 518.279 112.206 518.279 102.264C518.279 92.3234 510.22 84.2645 500.279 84.2645C490.337 84.2645 482.279 92.3234 482.279 102.264ZM500.279 82.2645C511.324 82.2645 520.279 91.2188 520.279 102.264C520.279 113.31 511.324 122.264 500.279 122.264L380.279 122.264C369.233 122.264 360.279 113.31 360.279 102.264C360.279 91.2188 369.233 82.2645 380.279 82.2645L500.279 82.2645ZM389.007 84.2645L491.55 84.2645C484.878 87.5059 480.279 94.3481 480.279 102.264C480.279 110.181 484.878 117.023 491.55 120.264L389.007 120.264C395.679 117.023 400.279 110.181 400.279 102.264C400.279 94.3481 395.679 87.5059 389.007 84.2645ZM362.279 102.264C362.279 112.206 370.337 120.264 380.279 120.264C390.22 120.264 398.279 112.206 398.279 102.264C398.279 92.3234 390.22 84.2645 380.279 84.2645C370.337 84.2645 362.279 92.3234 362.279 102.264Z" fill="#0D1526"/>
<path fill-rule="evenodd" clip-rule="evenodd" d="M472.996 35.0122C465.967 42.0416 454.57 42.0416 447.54 35.0122C440.511 27.9828 440.511 16.5858 447.54 9.55635C450.799 6.29734 454.997 4.54929 459.263 4.31218C460.173 4.26161 461.086 4.27977 461.994 4.36665C466.009 4.75107 469.921 6.48097 472.996 9.55635C480.026 16.5858 480.026 27.9828 472.996 35.0122ZM466.824 41.184C459.814 43.61 451.724 42.0241 446.126 36.4264C440.528 30.8287 438.942 22.7383 441.368 15.7282L367.556 89.5403C360.527 96.5697 360.527 107.967 367.556 114.996C374.586 122.026 385.983 122.026 393.012 114.996L466.824 41.184ZM474.41 8.14214C482.221 15.9526 482.221 28.6159 474.41 36.4264L394.426 116.41C386.616 124.221 373.953 124.221 366.142 116.41C358.332 108.6 358.332 95.9366 366.142 88.1261L446.126 8.14214C449.25 5.01836 453.15 3.14392 457.205 2.51884C459.17 2.21593 461.172 2.20639 463.139 2.49021C463.457 2.53598 463.773 2.58937 464.088 2.65039C467.87 3.38262 471.481 5.2132 474.41 8.14214Z" fill="#0D1526"/>
<path fill-rule="evenodd" clip-rule="evenodd" d="M478.272 142.283C478.272 132.341 470.213 124.283 460.272 124.283C450.331 124.283 442.272 132.341 442.272 142.283C442.272 152.224 450.331 160.283 460.272 160.283C470.213 160.283 478.272 152.224 478.272 142.283ZM478.272 22.2825V133.554C475.031 126.882 468.188 122.283 460.272 122.283C452.356 122.283 445.514 126.882 442.272 133.554V22.2825C442.272 12.3414 450.331 4.2825 460.272 4.2825C470.213 4.2825 478.272 12.3414 478.272 22.2825ZM480.272 142.283C480.272 153.328 471.318 162.283 460.272 162.283C449.226 162.283 440.272 153.328 440.272 142.283V22.2825C440.272 11.2368 449.226 2.2825 460.272 2.2825C471.318 2.2825 480.272 11.2368 480.272 22.2825V142.283Z" fill="#0D1526"/>
<line y1="161" x2="520" y2="161" stroke="#0D1526" stroke-width="2"/>
</svg>
