<svg width="30" height="32" viewBox="0 0 30 32" fill="none" xmlns="http://www.w3.org/2000/svg">
<path d="M19.8753 26.5C19.8753 27.6935 19.3617 28.8381 18.4474 29.682C17.5332 30.5259 16.2933 31 15.0003 31C13.7074 31 12.4675 30.5259 11.5533 29.682C10.639 28.8381 10.1254 27.6935 10.1254 26.5M16.172 5.5045L13.7897 5.5C8.35584 5.488 3.63855 9.5635 3.60117 14.5V20.185C3.60117 21.37 3.43868 22.5265 2.73831 23.512L2.27195 24.169C1.56183 25.165 2.32557 26.5 3.60117 26.5H26.3995C27.6751 26.5 28.4372 25.165 27.7288 24.169L27.2624 23.512C26.5636 22.5265 26.3995 21.3685 26.3995 20.1835V14.5015C26.3345 9.5635 21.6059 5.5165 16.172 5.5045ZM15.0003 1C15.8623 1 16.6889 1.31607 17.2984 1.87868C17.9079 2.44129 18.2503 3.20435 18.2503 4V5.5H11.7504V4C11.7504 3.20435 12.0928 2.44129 12.7023 1.87868C13.3118 1.31607 14.1384 1 15.0003 1Z" stroke="#264073" stroke-width="2" stroke-linecap="round" stroke-linejoin="round"/>
</svg>
