<svg width="30" height="30" viewBox="0 0 30 30" fill="none" xmlns="http://www.w3.org/2000/svg">
<path d="M28.125 2.80657L20.6184 2.8066V0.93772C20.6184 0.41963 20.1989 0 19.6809 0C19.163 0 18.7434 0.41963 18.7434 0.93772V2.80613H11.2434V0.93772C11.2434 0.41963 10.8239 0 10.3059 0C9.78797 0 9.36844 0.41963 9.36844 0.93772V2.80613H1.875C0.839531 2.80613 0 3.64585 0 4.68157V28.1246C0 29.1602 0.839531 30 1.875 30H28.125C29.1605 30 30 29.1602 30 28.1246V4.68157C30 3.64629 29.1605 2.80657 28.125 2.80657ZM28.125 28.1246H1.875V4.68157H9.36844V5.62632C9.36844 6.14438 9.78797 6.56404 10.3059 6.56404C10.8239 6.56404 11.2434 6.14438 11.2434 5.62632V4.68203H18.7434V5.62679C18.7434 6.14488 19.163 6.56451 19.6809 6.56451C20.1989 6.56451 20.6184 6.14488 20.6184 5.62679V4.68203H28.125V28.1246ZM21.5625 14.9969H23.4375C23.955 14.9969 24.375 14.5768 24.375 14.0592V12.1838C24.375 11.6661 23.955 11.246 23.4375 11.246H21.5625C21.045 11.246 20.625 11.6661 20.625 12.1838V14.0592C20.625 14.5768 21.045 14.9969 21.5625 14.9969ZM21.5625 22.4982H23.4375C23.955 22.4982 24.375 22.0786 24.375 21.5605V19.6851C24.375 19.1674 23.955 18.7473 23.4375 18.7473H21.5625C21.045 18.7473 20.625 19.1674 20.625 19.6851V21.5605C20.625 22.0791 21.045 22.4982 21.5625 22.4982ZM15.9375 18.7473H14.0625C13.545 18.7473 13.125 19.1674 13.125 19.6851V21.5605C13.125 22.0786 13.545 22.4982 14.0625 22.4982H15.9375C16.455 22.4982 16.875 22.0786 16.875 21.5605V19.6851C16.875 19.1679 16.455 18.7473 15.9375 18.7473ZM15.9375 11.246H14.0625C13.545 11.246 13.125 11.6661 13.125 12.1838V14.0592C13.125 14.5768 13.545 14.9969 14.0625 14.9969H15.9375C16.455 14.9969 16.875 14.5768 16.875 14.0592V12.1838C16.875 11.6657 16.455 11.246 15.9375 11.246ZM8.4375 11.246H6.5625C6.045 11.246 5.625 11.6661 5.625 12.1838V14.0592C5.625 14.5768 6.045 14.9969 6.5625 14.9969H8.4375C8.955 14.9969 9.375 14.5768 9.375 14.0592V12.1838C9.375 11.6657 8.955 11.246 8.4375 11.246ZM8.4375 18.7473H6.5625C6.045 18.7473 5.625 19.1674 5.625 19.6851V21.5605C5.625 22.0786 6.045 22.4982 6.5625 22.4982H8.4375C8.955 22.4982 9.375 22.0786 9.375 21.5605V19.6851C9.375 19.1679 8.955 18.7473 8.4375 18.7473Z" fill="#264073"/>
</svg>
