<svg width="30" height="30" viewBox="0 0 30 30" fill="none" xmlns="http://www.w3.org/2000/svg">
<path d="M11.2511 0.52C11.4341 0.742408 11.5462 1.01459 11.573 1.30139C11.5997 1.58818 11.5398 1.87641 11.4011 2.12882C10.317 4.11917 9.75079 6.35017 9.75466 8.61659C9.75466 16.1563 15.9015 22.2615 23.4772 22.2615C24.4654 22.2615 25.4274 22.1584 26.3518 21.9615C26.6352 21.9002 26.9304 21.9236 27.2005 22.029C27.4707 22.1344 27.7038 22.317 27.8707 22.554C28.047 22.8005 28.1368 23.0983 28.1263 23.4011C28.1158 23.704 28.0055 23.9948 27.8126 24.2285C26.3419 26.035 24.4865 27.4906 22.3818 28.489C20.2771 29.4875 17.976 30.0037 15.6465 30C7.0019 30 0 23.0359 0 14.4556C0 7.99781 3.96412 2.45883 9.6084 0.111233C9.88956 -0.00758696 10.2017 -0.0319743 10.4979 0.0417347C10.7941 0.115444 11.0584 0.283269 11.2511 0.52Z" fill="#264073"/>
<path d="M20.2406 5.90129C20.2675 5.82009 20.3193 5.74943 20.3887 5.69935C20.458 5.64926 20.5414 5.62231 20.6269 5.62231C20.7125 5.62231 20.7958 5.64926 20.8652 5.69935C20.9345 5.74943 20.9863 5.82009 21.0132 5.90129L21.7389 8.08013C22.0633 9.05142 22.8246 9.81271 23.796 10.1371L25.9749 10.8627C26.0561 10.8896 26.1268 10.9414 26.1769 11.0108C26.227 11.0801 26.2539 11.1635 26.2539 11.249C26.2539 11.3346 26.227 11.4179 26.1769 11.4873C26.1268 11.5566 26.0561 11.6084 25.9749 11.6353L23.796 12.3609C23.3169 12.5205 22.8816 12.7895 22.5246 13.1465C22.1675 13.5036 21.8985 13.9389 21.7389 14.4179L21.0132 16.5967C20.9863 16.6779 20.9345 16.7486 20.8652 16.7987C20.7958 16.8488 20.7125 16.8757 20.6269 16.8757C20.5414 16.8757 20.458 16.8488 20.3887 16.7987C20.3193 16.7486 20.2675 16.6779 20.2406 16.5967L19.515 14.4179C19.3553 13.9389 19.0864 13.5036 18.7293 13.1465C18.3722 12.7895 17.9369 12.5205 17.4579 12.3609L15.2789 11.6353C15.1977 11.6084 15.1271 11.5566 15.077 11.4873C15.0269 11.4179 14.9999 11.3346 14.9999 11.249C14.9999 11.1635 15.0269 11.0801 15.077 11.0108C15.1271 10.9414 15.1977 10.8896 15.2789 10.8627L17.4579 10.1371C17.9369 9.97749 18.3722 9.70852 18.7293 9.35148C19.0864 8.99445 19.3553 8.55917 19.515 8.08013L20.2406 5.90129ZM25.9956 0.18418C26.0141 0.130789 26.0488 0.0844929 26.0948 0.0517272C26.1408 0.0189614 26.1959 0.00135464 26.2525 0.00135464C26.309 0.00135464 26.3641 0.0189614 26.4101 0.0517272C26.4562 0.0844929 26.4908 0.130789 26.5094 0.18418L26.9932 1.63549C27.2088 2.28427 27.717 2.79241 28.3658 3.00805L29.8172 3.49182C29.8706 3.51033 29.9169 3.54501 29.9496 3.59105C29.9824 3.63709 30 3.69219 30 3.7487C30 3.80521 29.9824 3.86032 29.9496 3.90635C29.9169 3.95239 29.8706 3.98708 29.8172 4.00559L28.3658 4.48936C28.046 4.59572 27.7555 4.77515 27.5172 5.01341C27.279 5.25167 27.0995 5.54219 26.9932 5.86192L26.5094 7.31323C26.4908 7.36662 26.4562 7.41291 26.4101 7.44568C26.3641 7.47844 26.309 7.49605 26.2525 7.49605C26.1959 7.49605 26.1408 7.47844 26.0948 7.44568C26.0488 7.41291 26.0141 7.36662 25.9956 7.31323L25.5118 5.86192C25.4054 5.54219 25.226 5.25167 24.9877 5.01341C24.7494 4.77515 24.4589 4.59572 24.1391 4.48936L22.6877 4.00559C22.6344 3.98708 22.5881 3.95239 22.5553 3.90635C22.5225 3.86032 22.5049 3.80521 22.5049 3.7487C22.5049 3.69219 22.5225 3.63709 22.5553 3.59105C22.5881 3.54501 22.6344 3.51033 22.6877 3.49182L24.1391 3.00805C24.7879 2.79241 25.2961 2.28427 25.5118 1.63549L25.9956 0.18418Z" fill="#264073"/>
</svg>
