<svg width="30" height="30" viewBox="0 0 30 30" fill="none" xmlns="http://www.w3.org/2000/svg">
<path d="M9.0625 2.7H8.75C8.92188 2.7 9.0625 2.565 9.0625 2.4V2.7H20.9375V2.4C20.9375 2.565 21.0781 2.7 21.25 2.7H20.9375V5.4H23.75V2.4C23.75 1.07625 22.6289 0 21.25 0H8.75C7.37109 0 6.25 1.07625 6.25 2.4V5.4H9.0625V2.7ZM28.75 5.4H1.25C0.558594 5.4 0 5.93625 0 6.6V7.8C0 7.965 0.140625 8.1 0.3125 8.1H2.67187L3.63672 27.7125C3.69922 28.9913 4.80078 30 6.13281 30H23.8672C25.2031 30 26.3008 28.995 26.3633 27.7125L27.3281 8.1H29.6875C29.8594 8.1 30 7.965 30 7.8V6.6C30 5.93625 29.4414 5.4 28.75 5.4ZM23.5664 27.3H6.43359L5.48828 8.1H24.5117L23.5664 27.3Z" fill="#264073"/>
</svg>
