<svg width="16" height="16" viewBox="0 0 16 16" fill="none" xmlns="http://www.w3.org/2000/svg">
<path d="M2.91153 12.2345V12.7345H3.41153H4.1173C4.17188 12.7345 4.22421 12.7562 4.2628 12.7948C4.30139 12.8334 4.32307 12.8857 4.32307 12.9403C4.32307 12.9948 4.30139 13.0472 4.2628 13.0858C4.22421 13.1244 4.17188 13.146 4.1173 13.146H2.70577C2.65119 13.146 2.59886 13.1244 2.56027 13.0858C2.52168 13.0472 2.5 12.9948 2.5 12.9403V3.05953C2.5 3.00495 2.52168 2.95262 2.56027 2.91403C2.59886 2.87544 2.65119 2.85376 2.70577 2.85376H4.1173C4.17187 2.85376 4.22421 2.87544 4.2628 2.91403C4.30139 2.95262 4.32307 3.00495 4.32307 3.05953C4.32307 3.1141 4.30139 3.16644 4.2628 3.20503L4.61635 3.55858L4.2628 3.20503C4.22421 3.24362 4.17187 3.26529 4.1173 3.26529H3.41153H2.91153V3.76529V12.2345ZM13.4623 7.87865L13.4624 7.87871C13.4875 7.91439 13.5007 7.95714 13.5 8.00079C13.4992 8.04444 13.4846 8.08672 13.4583 8.12151L13.4569 8.12336L11.3396 10.9464L11.7396 11.2464L11.3396 10.9464C11.3204 10.972 11.2956 10.9927 11.267 11.007C11.2384 11.0213 11.2069 11.0287 11.175 11.0287C11.1305 11.0287 11.0871 11.0143 11.0515 10.9876L10.7515 11.3876L11.0515 10.9876C11.0299 10.9714 11.0117 10.9511 10.9979 10.9278C10.9841 10.9045 10.9751 10.8788 10.9713 10.8521C10.9675 10.8253 10.9689 10.7981 10.9756 10.7719C10.9823 10.7457 10.9941 10.7211 11.0104 10.6995L12.2807 9.00567L12.8807 8.20567H11.8807H6.2346C6.18003 8.20567 6.12769 8.18399 6.0891 8.1454L5.73555 8.49895L6.0891 8.1454C6.05052 8.10681 6.02884 8.05447 6.02884 7.9999C6.02884 7.94533 6.05052 7.89299 6.0891 7.8544L5.73555 7.50085L6.0891 7.8544C6.12769 7.81581 6.18003 7.79413 6.2346 7.79413H11.9443H12.9131L12.3518 7.00447L11.1379 5.29651L11.1373 5.29565C11.1215 5.27353 11.1102 5.2485 11.1042 5.22202C11.0981 5.19553 11.0973 5.1681 11.1019 5.14132C11.1065 5.11454 11.1164 5.08893 11.1309 5.06597L10.7085 4.7984L11.1309 5.06597C11.1455 5.04302 11.1644 5.02317 11.1867 5.00757L11.1869 5.00739C11.2314 4.97615 11.2865 4.96381 11.3401 4.97307C11.3935 4.98229 11.4411 5.0122 11.4726 5.05629C11.4727 5.05646 11.4728 5.05662 11.4729 5.05678L13.4623 7.87865Z" stroke="#ECF0F9"/>
</svg>
