<svg width="30" height="30" viewBox="0 0 30 30" fill="none" xmlns="http://www.w3.org/2000/svg">
<path fill-rule="evenodd" clip-rule="evenodd" d="M20.7198 3.94209V7.41648L23.0168 5.21158V1.11359L21.8683 0H1.19449L0.0459418 1.11359V2.19599L0 2.22717V25.1448L0.826952 26.1693L12.3124 30L13.7825 28.9532V26.7261H21.8683L23.0168 25.6125V21.5813L20.7198 19.3541V24.4989H13.7825V6.03563L13.0245 5.01114L4.67688 2.22717H20.7198V3.94209ZM11.4855 27.3497L2.29709 24.3653V3.83073L11.4855 6.81514V27.3497ZM26.4625 14.4321H15.0459V12.2049H26.3706L22.6953 8.64143L24.3262 7.0824L30 12.5612V14.1425L24.2802 19.6659L22.6723 18.1069L26.4625 14.4321Z" fill="#264073"/>
</svg>
