<svg width="30" height="30" viewBox="0 0 30 30" fill="none" xmlns="http://www.w3.org/2000/svg">
<path d="M3.75 11.5C3.25754 11.5 2.76991 11.5905 2.31494 11.7664C1.85997 11.9423 1.44657 12.2001 1.09835 12.5251C0.75013 12.8501 0.473907 13.236 0.285452 13.6606C0.0969966 14.0852 0 14.5404 0 15C0 15.4596 0.0969966 15.9148 0.285452 16.3394C0.473907 16.764 0.75013 17.1499 1.09835 17.4749C1.44657 17.7999 1.85997 18.0577 2.31494 18.2336C2.76991 18.4095 3.25754 18.5 3.75 18.5C4.74456 18.5 5.69839 18.1313 6.40165 17.4749C7.10491 16.8185 7.5 15.9283 7.5 15C7.5 14.0717 7.10491 13.1815 6.40165 12.5251C5.69839 11.8687 4.74456 11.5 3.75 11.5ZM3.75 13.5C4.17624 13.5 4.58502 13.658 4.88642 13.9393C5.18782 14.2206 5.35714 14.6022 5.35714 15C5.35714 15.3978 5.18782 15.7794 4.88642 16.0607C4.58502 16.342 4.17624 16.5 3.75 16.5C3.32376 16.5 2.91498 16.342 2.61358 16.0607C2.31218 15.7794 2.14286 15.3978 2.14286 15C2.14286 14.6022 2.31218 14.2206 2.61358 13.9393C2.91498 13.658 3.32376 13.5 3.75 13.5ZM15 11.5C15.4925 11.5 15.9801 11.5905 16.4351 11.7664C16.89 11.9423 17.3034 12.2001 17.6517 12.5251C17.9999 12.8501 18.2761 13.236 18.4645 13.6606C18.653 14.0852 18.75 14.5404 18.75 15C18.75 15.4596 18.653 15.9148 18.4645 16.3394C18.2761 16.764 17.9999 17.1499 17.6517 17.4749C17.3034 17.7999 16.89 18.0577 16.4351 18.2336C15.9801 18.4095 15.4925 18.5 15 18.5C14.0054 18.5 13.0516 18.1313 12.3483 17.4749C11.6451 16.8185 11.25 15.9283 11.25 15C11.25 14.0717 11.6451 13.1815 12.3483 12.5251C13.0516 11.8687 14.0054 11.5 15 11.5ZM15 13.5C14.5738 13.5 14.165 13.658 13.8636 13.9393C13.5622 14.2206 13.3929 14.6022 13.3929 15C13.3929 15.3978 13.5622 15.7794 13.8636 16.0607C14.165 16.342 14.5738 16.5 15 16.5C15.4262 16.5 15.835 16.342 16.1364 16.0607C16.4378 15.7794 16.6071 15.3978 16.6071 15C16.6071 14.6022 16.4378 14.2206 16.1364 13.9393C15.835 13.658 15.4262 13.5 15 13.5ZM26.25 11.5C26.7425 11.5 27.2301 11.5905 27.6851 11.7664C28.14 11.9423 28.5534 12.2001 28.9016 12.5251C29.2499 12.8501 29.5261 13.236 29.7145 13.6606C29.903 14.0852 30 14.5404 30 15C30 15.4596 29.903 15.9148 29.7145 16.3394C29.5261 16.764 29.2499 17.1499 28.9016 17.4749C28.5534 17.7999 28.14 18.0577 27.6851 18.2336C27.2301 18.4095 26.7425 18.5 26.25 18.5C25.2554 18.5 24.3016 18.1313 23.5983 17.4749C22.8951 16.8185 22.5 15.9283 22.5 15C22.5 14.0717 22.8951 13.1815 23.5983 12.5251C24.3016 11.8687 25.2554 11.5 26.25 11.5ZM26.25 13.5C25.8238 13.5 25.415 13.658 25.1136 13.9393C24.8122 14.2206 24.6429 14.6022 24.6429 15C24.6429 15.3978 24.8122 15.7794 25.1136 16.0607C25.415 16.342 25.8238 16.5 26.25 16.5C26.6762 16.5 27.085 16.342 27.3864 16.0607C27.6878 15.7794 27.8571 15.3978 27.8571 15C27.8571 14.6022 27.6878 14.2206 27.3864 13.9393C27.085 13.658 26.6762 13.5 26.25 13.5Z" fill="#264073"/>
</svg>
