<svg width="64" height="59" viewBox="0 0 64 59" fill="none" xmlns="http://www.w3.org/2000/svg">
<path d="M32 7.65635L57.2807 51.3353H6.71927L32 7.65635ZM0.911084 47.9779C-1.67406 52.4432 1.54898 58.0499 6.71927 58.0499H57.2807C62.451 58.0499 65.6741 52.4432 63.0889 47.9779L37.8082 4.29901C35.223 -0.16624 28.777 -0.16624 26.1918 4.29901L0.911084 47.9779ZM28.6427 24.4766V31.1913C28.6427 33.0378 30.1535 34.5486 32 34.5486C33.8465 34.5486 35.3573 33.0378 35.3573 31.1913V24.4766C35.3573 22.6301 33.8465 21.1193 32 21.1193C30.1535 21.1193 28.6427 22.6301 28.6427 24.4766ZM28.6427 41.2633H35.3573V47.9779H28.6427V41.2633Z" fill="#D1BE61"/>
</svg>
