<svg width="30" height="30" viewBox="0 0 30 30" fill="none" xmlns="http://www.w3.org/2000/svg">
<path d="M8.13609 0.764056C5.48817 2.42191 3.69822 5.34839 3.69822 8.69293C3.69822 12.0375 5.48817 14.964 8.18047 16.6218C3.63905 16.6218 0 13.0754 0 8.69293C0 6.59007 0.857193 4.57332 2.38301 3.08637C3.90882 1.59942 5.97827 0.764056 8.13609 0.764056ZM25.2515 2.92648L27.3669 4.98799L4.33432 27.4339L2.21893 25.3724L25.2515 2.92648ZM16.1095 6.4296L13.9201 5.0889L11.7899 6.53051L12.4112 4.07977L10.355 2.55166L12.9438 2.37866L13.8018 0L14.7929 2.34983L17.3521 2.39308L15.355 4.0221L16.1095 6.4296ZM11.2278 11.6338L9.51183 10.5815L7.85503 11.7059L8.35799 9.80298L6.74556 8.60644L8.7574 8.47669L9.42308 6.61701L10.1775 8.44786L12.1893 8.49111L10.6361 9.74531L11.2278 11.6338ZM25.1479 17.3426C25.1479 19.4455 24.2907 21.4622 22.7649 22.9492C21.2391 24.4361 19.1697 25.2715 17.0118 25.2715C15.2071 25.2715 13.5355 24.6949 12.1893 23.729L23.5651 12.643C24.5562 13.9548 25.1479 15.5839 25.1479 17.3426ZM18.6391 26.8284L22.7367 25.1706L22.3817 30L18.6391 26.8284ZM25.0444 22.9361L26.7456 18.9428L30 22.6045L25.0444 22.9361ZM26.7456 15.7857L25.0592 11.778L30 12.124L26.7456 15.7857ZM11.287 25.1706L15.3846 26.8284L11.642 29.9856L11.287 25.1706Z" fill="#264073"/>
</svg>
