<svg width="30" height="30" viewBox="0 0 30 30" fill="none" xmlns="http://www.w3.org/2000/svg">
<path d="M14.8624 18.3696C15.8844 18.3696 16.8645 18.0328 17.5871 17.4333C18.3098 16.8339 18.7158 16.0208 18.7158 15.173C18.7158 15.0793 18.7106 14.9866 18.701 14.895L14.5272 18.3574C14.6377 18.3654 14.7492 18.3696 14.8624 18.3696ZM27.6172 5.28498L26.1474 4.06682C26.0958 4.02404 26.0258 4 25.9528 4C25.8799 4 25.8099 4.02404 25.7583 4.06682L21.9971 7.18786C19.9222 6.3082 17.5898 5.86838 15 5.86838C8.38722 5.86838 3.45345 8.7254 0.198676 14.4394C0.0678502 14.6693 0 14.9202 0 15.1744C0 15.4285 0.0678502 15.6795 0.198676 15.9093C1.49921 18.1818 3.06524 20.0033 4.89677 21.3736L1.25699 24.3919C1.20541 24.4347 1.17644 24.4928 1.17644 24.5533C1.17644 24.6139 1.20541 24.6719 1.25699 24.7147L2.72577 25.9332C2.77738 25.976 2.84737 26 2.92033 26C2.9933 26 3.06328 25.976 3.1149 25.9332L27.6172 5.60808C27.6428 5.58687 27.6631 5.56169 27.677 5.53397C27.6908 5.50625 27.6979 5.47654 27.6979 5.44653C27.6979 5.41652 27.6908 5.38681 27.677 5.35909C27.6631 5.33137 27.6428 5.30619 27.6172 5.28498ZM8.80697 15.173C8.80687 14.3053 9.07768 13.4524 9.59302 12.6974C10.1084 11.9424 10.8507 11.311 11.7476 10.8647C12.6445 10.4184 13.6655 10.1724 14.7111 10.1507C15.7567 10.1291 16.7912 10.3324 17.7139 10.741L16.0411 12.1287C15.3665 11.9495 14.6454 11.9279 13.9569 12.0663C13.2685 12.2047 12.6393 12.4978 12.1384 12.9133C11.6375 13.3288 11.2843 13.8508 11.1175 14.4219C10.9506 14.993 10.9766 15.5912 11.1927 16.1508L9.51985 17.5385C9.05042 16.8109 8.8055 15.9982 8.80697 15.173Z" fill="#264073"/>
<path d="M29.8013 14.4366C28.5902 12.3207 27.1487 10.5954 25.4768 9.26055L20.5176 13.3748C20.9357 14.2814 21.0283 15.2689 20.7844 16.2182C20.5405 17.1674 19.9704 18.0378 19.1431 18.7241C18.3158 19.4104 17.2666 19.8833 16.1223 20.0857C14.978 20.288 13.7876 20.2111 12.6948 19.8644L8.48837 23.3539C10.4399 24.103 12.6104 24.4776 15 24.4776C21.6127 24.4776 26.5465 21.6205 29.8013 15.9065C29.9321 15.6767 30 15.4257 30 15.1715C30 14.9174 29.9321 14.6664 29.8013 14.4366Z" fill="#264073"/>
</svg>
