<svg width="30" height="30" viewBox="0 0 30 30" fill="none" xmlns="http://www.w3.org/2000/svg">
<path d="M11.0089 15C11.0089 16.0023 11.4149 16.9635 12.1376 17.6723C12.8602 18.381 13.8404 18.7791 14.8624 18.7791C15.8844 18.7791 16.8645 18.381 17.5872 17.6723C18.3098 16.9635 18.7158 16.0023 18.7158 15C18.7158 13.9977 18.3098 13.0365 17.5872 12.3277C16.8645 11.619 15.8844 11.2209 14.8624 11.2209C13.8404 11.2209 12.8602 11.619 12.1376 12.3277C11.4149 13.0365 11.0089 13.9977 11.0089 15ZM29.8013 14.1294C26.5396 7.3911 21.6093 4 15 4C8.38722 4 3.46033 7.3911 0.198676 14.1328C0.0678502 14.4045 0 14.7012 0 15.0017C0 15.3021 0.0678502 15.5989 0.198676 15.8706C3.46033 22.6089 8.39066 26 15 26C21.6128 26 26.5396 22.6089 29.8013 15.8672C30.0662 15.3206 30.0662 14.6862 29.8013 14.1294ZM14.8624 20.9387C11.5181 20.9387 8.80697 18.2798 8.80697 15C8.80697 11.7202 11.5181 9.06135 14.8624 9.06135C18.2066 9.06135 20.9178 11.7202 20.9178 15C20.9178 18.2798 18.2066 20.9387 14.8624 20.9387Z" fill="#264073"/>
</svg>
