<svg width="30" height="30" viewBox="0 0 30 30" fill="none" xmlns="http://www.w3.org/2000/svg">
<path d="M16.069 0.443569C15.9296 0.303017 15.7638 0.191458 15.581 0.115327C15.3983 0.039196 15.2023 0 15.0043 0C14.8064 0 14.6104 0.039196 14.4276 0.115327C14.2449 0.191458 14.079 0.303017 13.9396 0.443569L0.443568 13.9397C0.303017 14.0791 0.191458 14.2449 0.115327 14.4276C0.039196 14.6104 0 14.8064 0 15.0043C0 15.2023 0.039196 15.3983 0.115327 15.581C0.191458 15.7638 0.303017 15.9296 0.443568 16.069C0.583688 16.208 0.749863 16.318 0.932566 16.3926C1.11527 16.4672 1.31091 16.5051 1.50826 16.5039H3.00782V27.0009C3.00782 27.7963 3.3238 28.5591 3.88625 29.1216C4.44869 29.684 5.21153 30 6.00695 30H24.0017C24.7971 30 25.56 29.684 26.1224 29.1216C26.6849 28.5591 27.0008 27.7963 27.0008 27.0009V16.5039H28.5004C28.8981 16.5039 29.2795 16.3459 29.5608 16.0647C29.842 15.7835 30 15.4021 30 15.0043C30.0011 14.807 29.9633 14.6114 29.8887 14.4287C29.814 14.246 29.7041 14.0798 29.5651 13.9397L16.069 0.443569ZM6.00695 27.0009V12.62L15.0043 3.62265L24.0017 12.62V27.0009H6.00695Z" fill="#264073"/>
</svg>
