<svg width="18" height="18" viewBox="0 0 18 18" fill="none" xmlns="http://www.w3.org/2000/svg">
<path d="M10.0897 11.6964C10.0633 11.6702 10.0276 11.6555 9.99043 11.6555C9.95323 11.6555 9.91754 11.6702 9.89111 11.6964L7.84854 13.739C6.90283 14.6847 5.30674 14.7849 4.2626 13.739C3.2167 12.6931 3.31689 11.0987 4.2626 10.153L6.30518 8.11045C6.35967 8.05596 6.35967 7.96631 6.30518 7.91182L5.60557 7.21221C5.57914 7.18604 5.54344 7.17136 5.50625 7.17136C5.46906 7.17136 5.43336 7.18604 5.40693 7.21221L3.36436 9.25479C1.87725 10.7419 1.87725 13.1483 3.36436 14.6337C4.85146 16.119 7.25791 16.1208 8.74326 14.6337L10.7858 12.5911C10.8403 12.5366 10.8403 12.447 10.7858 12.3925L10.0897 11.6964ZM14.6354 3.36436C13.1483 1.87725 10.7419 1.87725 9.25654 3.36436L7.21221 5.40693C7.18604 5.43336 7.17136 5.46906 7.17136 5.50625C7.17136 5.54345 7.18604 5.57914 7.21221 5.60557L7.91006 6.30342C7.96455 6.35791 8.0542 6.35791 8.10869 6.30342L10.1513 4.26084C11.097 3.31514 12.6931 3.21494 13.7372 4.26084C14.7831 5.30674 14.6829 6.90107 13.7372 7.84678L11.6946 9.88936C11.6685 9.91579 11.6538 9.95148 11.6538 9.98867C11.6538 10.0259 11.6685 10.0616 11.6946 10.088L12.3942 10.7876C12.4487 10.8421 12.5384 10.8421 12.5929 10.7876L14.6354 8.74502C16.1208 7.25791 16.1208 4.85146 14.6354 3.36436ZM10.7243 6.54424C10.6979 6.51807 10.6622 6.50339 10.625 6.50339C10.5878 6.50339 10.5521 6.51807 10.5257 6.54424L6.54424 10.5239C6.51807 10.5504 6.50339 10.586 6.50339 10.6232C6.50339 10.6604 6.51807 10.6961 6.54424 10.7226L7.24033 11.4187C7.29482 11.4731 7.38447 11.4731 7.43897 11.4187L11.4187 7.43897C11.4731 7.38447 11.4731 7.29483 11.4187 7.24033L10.7243 6.54424Z" fill="#ECF0F9"/>
</svg>
