<svg width="50" height="50" viewBox="0 0 50 50" fill="none" xmlns="http://www.w3.org/2000/svg">
<g clip-path="url(#clip0_153_767)">
<rect width="50" height="50" rx="25" fill="var(--logo-logo)"/>
<g opacity="0.5">
<path d="M55.7333 11.9765C57.2893 13.5324 57.2893 16.0551 55.7333 17.611L34.3123 39.0321L28.6777 33.3976L50.0988 11.9765C51.6548 10.4206 54.1774 10.4206 55.7333 11.9765Z" fill="var(--logo-c3)"/>
<path d="M14.5922 24.945C16.1482 23.3891 18.6708 23.3891 20.2268 24.945L34.3131 39.0313L31.4958 41.8486C29.9399 43.4045 27.4172 43.4045 25.8613 41.8486L14.5922 30.5795C13.0363 29.0236 13.0363 26.5009 14.5922 24.945Z" fill="#264073"/>
</g>
<path d="M51.9081 8.15132C53.4641 9.70725 53.4641 12.2299 51.9081 13.7858L30.4871 35.2069L24.8525 29.5724L46.2736 8.15132C47.8296 6.59539 50.3522 6.59539 51.9081 8.15132Z" fill="var(--logo-c2)"/>
<path d="M10.767 21.1198C12.323 19.5639 14.8456 19.5639 16.4016 21.1198L30.4879 35.2061L27.6706 38.0234C26.1147 39.5793 23.592 39.5793 22.0361 38.0234L10.767 26.7543C9.21112 25.1984 9.21111 22.6757 10.767 21.1198Z" fill="#D9E1F2"/>
</g>
<defs>
<clipPath id="clip0_153_767">
<rect width="50" height="50" rx="25" fill="var(--logo-c1)"/>
</clipPath>
</defs>
</svg>
