<svg width="50" height="50" viewBox="0 0 50 50" fill="none" xmlns="http://www.w3.org/2000/svg">
<g clip-path="url(#clip0_152_792)">
<rect width="50" height="50" rx="5" fill="var(--logo-bg)"/>
<g opacity="0.5">
<path d="M61.1996 8.98762C63.0669 10.8549 63.0669 13.8824 61.1996 15.7497L35.492 41.4574L28.7299 34.6953L54.4376 8.98762C56.3049 7.12034 59.3323 7.12034 61.1996 8.98762Z" fill="var(--logo-c3)"/>
<path d="M11.8258 24.5512C13.693 22.684 16.7205 22.684 18.5878 24.5512L35.4929 41.4564L32.1119 44.8374C30.2446 46.7047 27.2171 46.7047 25.3499 44.8374L11.8258 31.3133C9.95847 29.446 9.95847 26.4185 11.8258 24.5512Z" fill="#264073"/>
</g>
<path d="M57.3744 5.16243C59.2417 7.02972 59.2417 10.0572 57.3744 11.9245L31.6668 37.6322L24.9047 30.8701L50.6124 5.16243C52.4797 3.29514 55.5071 3.29514 57.3744 5.16243Z" fill="var(--logo-c2)"/>
<path d="M8.00056 20.726C9.86785 18.8588 12.8953 18.8588 14.7626 20.726L31.6677 37.6312L28.2867 41.0122C26.4194 42.8795 23.392 42.8795 21.5247 41.0122L8.00056 27.4881C6.13328 25.6208 6.13328 22.5933 8.00056 20.726Z" fill="#D9E1F2"/>
</g>
<defs>
<clipPath id="clip0_152_792">
<rect width="50" height="50" rx="5" fill="var(--logo-c1)"/>
</clipPath>
</defs>
</svg>
