<svg width="50" height="50" viewBox="0 0 50 50" fill="none" xmlns="http://www.w3.org/2000/svg">
<g clip-path="url(#clip0_153_764)">
<rect width="50" height="50" rx="25" fill="#406BBF"/>
<path opacity="0.4" d="M16.3364 50.9669L8.68262 22.6494C16.9999 31.3267 22.9649 34.2476 26.4717 35.0586C29.2772 35.7074 43.8213 17.4677 50 8.38013V51.6956L16.3364 50.9669Z" fill="#264073"/>
<path d="M50.9907 7.40425C52.5466 8.96018 52.5466 11.4828 50.9907 13.0388L29.5696 34.4599L23.9351 28.8253L45.3561 7.40425C46.9121 5.84832 49.4347 5.84832 50.9907 7.40425Z" fill="#9FB5DF"/>
<path d="M9.84956 20.3727C11.4055 18.8168 13.9282 18.8168 15.4841 20.3727L29.5704 34.459L26.7531 37.2763C25.1972 38.8322 22.6745 38.8322 21.1186 37.2763L9.84957 26.0073C8.29363 24.4513 8.29363 21.9287 9.84956 20.3727Z" fill="#D9E1F2"/>
</g>
<defs>
<clipPath id="clip0_153_764">
<rect width="50" height="50" rx="25" fill="white"/>
</clipPath>
</defs>
</svg>
